<?xml version="1.0" encoding="UTF-8"?>
<svg id="Layer_2" data-name="Layer 2" xmlns="http://www.w3.org/2000/svg" viewBox="0 0 26.42 31.48">
  <defs>
    <style>
      .cls-1 {
        fill: #fff;
        fill-rule: evenodd;
      }
    </style>
  </defs>
  <g id="Layer_1-2" data-name="Layer 1">
    <g>
      <path class="cls-1" d="m9.31,14.3c-.94-5.49,1.09-10.8,4.91-14.3-.36.04-.73.08-1.09.15C4.54,1.61-1.24,9.76.23,18.35c1.46,8.59,9.61,14.37,18.2,12.9,3.1-.53,5.83-1.93,7.99-3.9-8.18.82-15.71-4.83-17.11-13.05Z"/>
      <polygon class="cls-1" points="16.63 10.16 17.59 9.57 18.64 10 18.38 8.9 19.11 8.03 17.98 7.94 17.39 6.98 16.96 8.03 15.85 8.29 16.72 9.03 16.63 10.16"/>
      <polygon class="cls-1" points="16.95 21.61 19.48 20.06 22.23 21.2 21.54 18.3 23.47 16.04 20.5 15.8 18.95 13.27 17.81 16.02 14.92 16.71 17.18 18.65 16.95 21.61"/>
      <polygon class="cls-1" points="21.5 13.46 22.66 12.75 23.92 13.27 23.6 11.94 24.48 10.91 23.13 10.8 22.41 9.64 21.89 10.9 20.57 11.22 21.6 12.1 21.5 13.46"/>
    </g>
  </g>
</svg>