{
	"asset":{
		"generator":"Khronos glTF Blender I/O v3.6.27",
		"version":"2.0",
		"copyright":""
	},
	"scenes":[{
		"nodes":[0]
	}],
	"nodes":[{
		"name":"Tube",
		"mesh":0,
		"translation":[0.0,
		-1.0637528896331788,
		0.0],
		"rotation":[0.0,
		0.0,
		0.0,
		-1.0],
		"scale":[1.0,
		1.0,
		1.0]
	}],
	"meshes":[{
		"name":"Tube",
		"primitives":[{
			"attributes":{
				"POSITION":1,
				"NORMAL":2,
				"TEXCOORD_0":3
			},
			"indices":0,
			"material":0
		}]
	}],
	"accessors":[{
		"bufferView":0,
		"type":"SCALAR",
		"componentType":5123,
		"count":3072,
		"byteOffset":0,
		"min":[0],
		"max":[3071]
	},
	{
		"bufferView":1,
		"type":"VEC3",
		"componentType":5126,
		"count":3072,
		"byteOffset":0,
		"min":[-15.890000343322754,
		-2.1700000762939455,
		-15.890000343322754],
		"max":[15.890000343322754,
		2.1700000762939455,
		15.890000343322754]
	},
	{
		"bufferView":1,
		"type":"VEC3",
		"componentType":5126,
		"count":3072,
		"byteOffset":12,
		"min":[-0.9999668002128601,
		-1.0,
		-0.9999668002128601],
		"max":[0.9999668002128601,
		1.0,
		0.9999668002128601]
	},
	{
		"bufferView":1,
		"type":"VEC2",
		"componentType":5126,
		"count":3072,
		"byteOffset":24,
		"min":[-7.445000171661377,
		-7.444999694824219],
		"max":[8.444999694824219,
		8.444999694824219]
	}],
	"bufferViews":[{
		"buffer":0,
		"byteOffset":0,
		"byteLength":6144,
		"target":34963
	},
	{
		"buffer":0,
		"byteOffset":6144,
		"byteLength":98304,
		"target":34962,
		"byteStride":32
	}],
	"buffers":[{
		"uri":"data:application/octet-stream;base64,",
		"byteLength":104448
	}],
	"materials":[{
		"pbrMetallicRoughness":{
			"baseColorFactor":[0.8,
			0.8,
			0.8,
			1.0],
			"metallicFactor":1.0,
			"roughnessFactor":0.3
		},
		"emissiveFactor":[0.0,
		0.0,
		0.0],
		"alphaMode":"OPAQUE",
		"doubleSided":true,
		"name":"silver"
	}]
}