<?xml version="1.0" encoding="UTF-8"?>
<svg id="Layer_2" data-name="Layer 2" xmlns="http://www.w3.org/2000/svg" viewBox="0 0 35.15 35.15">
  <defs>
    <style>
      .cls-1 {
        fill: #333;
        fill-rule: evenodd;
      }
    </style>
  </defs>
  <g id="Layer_1-2" data-name="Layer 1">
    <g>
      <path class="cls-1" d="m17.57,6.24c-6.23,0-11.29,5.05-11.29,11.29s5.05,11.29,11.29,11.29,11.29-5.05,11.29-11.29-5.05-11.29-11.29-11.29Z"/>
      <path class="cls-1" d="m20.81,5.61l-1.21-2.09-2.03-3.53-2.04,3.53-1.2,2.09c1.03-.28,2.12-.43,3.24-.43s2.21.15,3.24.43Z"/>
      <path class="cls-1" d="m31.62,15.54l-2.09-1.2c.28,1.03.43,2.12.43,3.24s-.15,2.21-.43,3.24l2.09-1.2,3.52-2.04-3.52-2.04Z"/>
      <path class="cls-1" d="m28.32,23.74c-.53.93-1.19,1.8-1.99,2.6-.79.79-1.67,1.45-2.6,1.99l2.33.62,3.93,1.05-1.05-3.93-.62-2.33Z"/>
      <path class="cls-1" d="m6.82,23.74l-.62,2.33-1.05,3.93,3.93-1.05,2.33-.62c-.93-.53-1.8-1.19-2.6-1.99-.79-.79-1.45-1.67-1.99-2.6Z"/>
      <path class="cls-1" d="m14.33,29.54l1.2,2.09,2.04,3.53,2.03-3.52,1.21-2.09c-1.03.28-2.12.43-3.24.43s-2.21-.15-3.24-.43Z"/>
      <path class="cls-1" d="m5.18,17.57c0-1.12.15-2.21.43-3.24l-2.09,1.2-3.52,2.04,3.52,2.04,2.09,1.2c-.28-1.03-.43-2.12-.43-3.24Z"/>
      <path class="cls-1" d="m6.82,11.41c.53-.93,1.19-1.8,1.99-2.6.79-.79,1.67-1.45,2.6-1.99l-2.33-.62-3.93-1.05,1.05,3.93.62,2.33Z"/>
      <path class="cls-1" d="m28.32,11.41l.62-2.33,1.05-3.93-3.93,1.05-2.33.62c.93.53,1.8,1.19,2.6,1.99.79.79,1.45,1.67,1.99,2.6Z"/>
    </g>
  </g>
</svg>